# xmcd
#
# Track frame offsets: 
#        150
#        13777
#        26957
#        50559
#        71195
#        84066
#        99272
#        114519
#        127900
#        144444
#        168481
#        182339
#        197111
#
# Disc length: 2842 seconds
#
# Revision: 0
# Processed by: cddbd v1.5.2PL0 Copyright (c) Steve Scherf et al.
# Submitted via: ExactAudioCopy v1.3
#
DISCID=a90b180d
DTITLE=Shaggy Dogs - Who Let the Shaggy Dogs Out ? !
DYEAR=2011
DGENRE=Blues Rock, Rock and Roll
TTITLE0=Why Should I Wait
TTITLE1=You Gotta Live
TTITLE2=How I Feel
TTITLE3=Hallelujah
TTITLE4=Promise
TTITLE5=Check Point
TTITLE6=I M Just a Man
TTITLE7=Hello
TTITLE8=Dont Think Twice
TTITLE9=Leave My Heart Alone
TTITLE10=Andre Williams
TTITLE11=They Get What They Want
TTITLE12=Communications Rules
EXTD=
EXTT0=
EXTT1=
EXTT2=
EXTT3=
EXTT4=
EXTT5=
EXTT6=
EXTT7=
EXTT8=
EXTT9=
EXTT10=
EXTT11=
EXTT12=
PLAYORDER=
